<?xml version="1.0" encoding="UTF-8"?>
<svg version="1.1" xmlns="http://www.w3.org/2000/svg" width="100" height="100">
<path d="M0 0 C2.20329174 1.68784276 2.90781407 2.51747725 3.43359375 5.26953125 C3.44247636 11.05211025 2.97836695 14.49816371 -1 19 C-6.71715351 24.58721821 -12.24717593 27.10363677 -20.1875 27.375 C-24.19466576 27.23937285 -26.92743701 26.77521819 -30 24 C-30.8125 21.8125 -30.8125 21.8125 -31 20 C-30.34 20.33 -29.68 20.66 -29 21 C-22.45231373 23.18256209 -17.18811229 22.30770932 -11.12109375 19.33203125 C-7.64410916 17.14851054 -5.01596208 14.59165658 -3 11 C-2.49474052 7.70365533 -2.49474052 7.70365533 -3 5 C-15.30662218 3.05808053 -24.68101001 6.07754277 -35 13 C-38.41838502 15.97600578 -40.50870592 18.82089421 -42.25 23 C-41.86465049 27.62419418 -39.23933007 29.87366981 -36 33 C-34.7625 34.2684375 -34.7625 34.2684375 -33.5 35.5625 C-31.06646162 37.29924884 -31.06646162 37.29924884 -28.1875 36.625 C-24.72799339 34.86132996 -21.97037258 32.7579054 -19.02734375 30.2421875 C-16.52806788 28.71083928 -14.87982598 28.77041249 -12 29 C-11.505 31.475 -11.505 31.475 -11 34 C-10.34 34 -9.68 34 -9 34 C-9 35.98 -9 37.96 -9 40 C-7.02 35.38 -5.04 30.76 -3 26 C-1.02 26 0.96 26 3 26 C3 28.64 3 31.28 3 34 C3.30292969 33.28972656 3.60585938 32.57945313 3.91796875 31.84765625 C4.33691406 30.92855469 4.75585938 30.00945313 5.1875 29.0625 C5.59355469 28.14597656 5.99960938 27.22945312 6.41796875 26.28515625 C8 24 8 24 10.67578125 23.18359375 C11.44277344 23.12300781 12.20976563 23.06242187 13 23 C13.87867729 26.73437848 14.08912219 30.16774573 14 34 C14.680625 33.835 15.36125 33.67 16.0625 33.5 C23.19278388 32.28633466 27.11525047 32.99837032 33 37 C34.50662097 40.01324195 34.17770373 42.68286377 34 46 C33.01 46.99 33.01 46.99 32 48 C31.01 48 30.02 48 29 48 C29 47.34 29 46.68 29 46 C29.66 46 30.32 46 31 46 C29.73053486 41.17557816 29.73053486 41.17557816 26 38 C23.71351152 37.75892674 23.71351152 37.75892674 21.3125 37.875 C20.50425781 37.89304688 19.69601563 37.91109375 18.86328125 37.9296875 C18.24839844 37.95289063 17.63351563 37.97609375 17 38 C17.12375 38.721875 17.2475 39.44375 17.375 40.1875 C17 43 17 43 14.3125 45.875 C11 48 11 48 8.125 47.8125 C7.42375 47.544375 6.7225 47.27625 6 47 C6.4979837 43.26512223 6.87491756 41.18762365 9 38 C8.67 37.01 8.34 36.02 8 35 C5.63988504 38.54017245 5.65480981 40.71335853 5.44140625 44.84375 C4.89493198 47.51325263 4.18816075 48.40095945 2 50 C-0.67318858 50.66957496 -3.23825037 50.77362708 -6 51 C-5.46884894 46.48521602 -3.63379708 43.65333143 -1 40 C-1.66 39.34 -2.32 38.68 -3 38 C-3.44730469 38.92683594 -3.89460938 39.85367188 -4.35546875 40.80859375 C-4.96521223 42.01870004 -5.57594115 43.22831014 -6.1875 44.4375 C-6.47947266 45.04916016 -6.77144531 45.66082031 -7.07226562 46.29101562 C-8.64160394 49.34531922 -9.40804825 50.80324571 -12.73828125 51.91015625 C-13.48464844 51.93980469 -14.23101562 51.96945313 -15 52 C-15 51.34 -15 50.68 -15 50 C-15.391875 50.495 -15.78375 50.99 -16.1875 51.5 C-18.55091715 53.45593143 -20.01435003 53.24207973 -23 53 C-26.42857143 45.71428571 -26.42857143 45.71428571 -26 41 C-26.66 41 -27.32 41 -28 41 C-27.67 41.66 -27.34 42.32 -27 43 C-26.59668572 48.24308569 -27.13948867 51.56127553 -30 56 C-34.03767768 60.26840212 -37.34476232 60.72635947 -43 61 C-43.99 60.67 -44.98 60.34 -46 60 C-47.6122851 56.77542981 -47.59125774 53.48707687 -47 50 C-43.96813042 46.07640408 -40.15467949 43.60875224 -36 41 C-39.31358924 37.58599897 -42.73384636 34.50128927 -46.44921875 31.52734375 C-48.75731394 29.25413161 -49.85145255 27.17712599 -50.2578125 23.95703125 C-49.88633873 17.9588224 -47.80350485 14.47489027 -43.6328125 10.20703125 C-31.96180503 0.42347158 -14.68671205 -7.91323953 0 0 Z M-17 34 C-19.41685712 38.22949995 -20.34833144 41.12335991 -20 46 C-17.43470546 44.71735273 -17.33500137 43.77227651 -16.375 41.125 C-16.11460938 40.42632812 -15.85421875 39.72765625 -15.5859375 39.0078125 C-14.85992828 36.86861468 -14.85992828 36.86861468 -15 34 C-15.66 34 -16.32 34 -17 34 Z M11 41 C12 43 12 43 12 43 Z M-38.703125 47.48828125 C-40.67947621 49.79204004 -40.86237302 52.04101995 -41 55 C-37.95281822 54.66142425 -36.2252397 54.16892978 -33.75 52.3125 C-31.64738963 49.53405058 -31.31204221 47.43246436 -31 44 C-34.60122522 44 -36.02873556 45.17797949 -38.703125 47.48828125 Z " fill="#7644FF" transform="translate(59,21)"/>
</svg>
